<svg width="48" height="48" viewBox="0 0 100 100" fill="none" xmlns="http://www.w3.org/2000/svg">
  <!-- Transparent background - blends seamlessly with page -->
  
  <!-- Hexagon outline - thick dark navy border -->
  <path
    d="M50 8 L88 30 L88 70 L50 92 L12 70 L12 30 Z"
    stroke="#1E3A8A"
    stroke-width="5"
    fill="none"
  />
  
  <!-- Yellow checkmark on the left (outlined in dark blue) -->
  <!-- Outer dark blue outline -->
  <path
    d="M22 42 L32 52 L42 42"
    stroke="#1E3A8A"
    stroke-width="4"
    stroke-linecap="round"
    stroke-linejoin="round"
    fill="none"
  />
  <path
    d="M32 52 L22 62"
    stroke="#1E3A8A"
    stroke-width="4"
    stroke-linecap="round"
    stroke-linejoin="round"
    fill="none"
  />
  <!-- Inner yellow fill -->
  <path
    d="M22 42 L32 52 L42 42"
    stroke="#FEDA15"
    stroke-width="2.5"
    stroke-linecap="round"
    stroke-linejoin="round"
    fill="none"
  />
  <path
    d="M32 52 L22 62"
    stroke="#FEDA15"
    stroke-width="2.5"
    stroke-linecap="round"
    stroke-linejoin="round"
    fill="none"
  />
  
  <!-- Dark blue wing/M shape on the right -->
  <path
    d="M58 32 L68 42 L75 35 L82 45 L75 55 L68 48 L58 68"
    fill="#1E3A8A"
  />
  <!-- Inner facets for depth -->
  <path
    d="M62 36 L70 44 L76 38 L80 45 L76 52 L70 46 L62 64"
    fill="#0F172A"
    opacity="0.5"
  />
  <path
    d="M64 38 L71 45 L77 39 L79 44 L77 50 L71 45 L64 62"
    fill="#1E3A8A"
    opacity="0.3"
  />
</svg>
